<?xml version="1.0" encoding="UTF-8"?>
<svg width="430px" height="205px" viewBox="0 0 430 205" version="1.1" xmlns="http://www.w3.org/2000/svg" xmlns:xlink="http://www.w3.org/1999/xlink">
    <title>Group 6</title>
    <g id="Welcome" stroke="none" stroke-width="1" fill="none" fill-rule="evenodd">
        <g id="Landing---Concept-2-Copy-41" transform="translate(-147.000000, -60.000000)">
            <g id="Group-6" transform="translate(147.000000, 60.000000)">
                <g id="Group-20-Copy">
                    <path d="M54.9180723,161 C72.5967871,161 86.1409639,155.690397 95.5506024,145.07119 C104.960241,134.451984 109.66506,119.211988 109.66506,99.3512017 C109.66506,79.4904157 104.960241,64.2504194 95.5506024,53.631213 C86.1409639,43.0120066 72.5967871,37.7024034 54.9180723,37.7024034 C37.3534137,37.7024034 23.8092369,43.0120066 14.2855422,53.631213 C4.76184739,64.2504194 0,79.4904157 0,99.3512017 C0,119.211988 4.76184739,134.451984 14.2855422,145.07119 C23.8092369,155.690397 37.3534137,161 54.9180723,161 Z M54.9180723,138.441362 C45.7935743,138.441362 38.8646586,135.083396 34.1313253,128.367466 C29.397992,121.651535 27.0313253,111.979447 27.0313253,99.3512017 C27.0313253,86.7229563 29.397992,77.0795688 34.1313253,70.4210394 C38.8646586,63.76251 45.7935743,60.4332452 54.9180723,60.4332452 C64.0425703,60.4332452 70.9429719,63.76251 75.6192771,70.4210394 C80.2955823,77.0795688 82.6337349,86.7229563 82.6337349,99.3512017 C82.6337349,111.979447 80.2955823,121.651535 75.6192771,128.367466 C70.9429719,135.083396 64.0425703,138.441362 54.9180723,138.441362 Z M173.821687,159.622373 C182.604016,159.622373 190.388353,158.302148 197.174699,155.661696 C203.961044,153.021245 209.692369,149.14667 214.368675,144.03797 C219.04498,138.929271 222.580723,132.643849 224.975904,125.181704 C227.371084,117.719559 228.568675,109.109391 228.568675,99.3512017 C228.568675,86.3785496 226.458635,75.4149365 222.238554,66.4603624 C218.018474,57.5057883 211.830924,50.7037561 203.675904,46.0542658 C195.520884,41.4047754 185.569478,39.0800302 173.821687,39.0800302 L173.821687,39.0800302 L137.209639,39.0800302 C132.64739,39.0800302 130.366265,41.3760748 130.366265,45.9681641 L130.366265,45.9681641 L130.366265,152.734239 C130.366265,157.326329 132.64739,159.622373 137.209639,159.622373 L137.209639,159.622373 L173.821687,159.622373 Z M173.821687,137.063735 L156.884337,137.063735 L156.884337,61.6386687 L173.821687,61.6386687 C179.980723,61.6386687 185.113253,63.0736966 189.219277,65.9437524 C193.325301,68.8138081 196.404819,73.0614907 198.457831,78.6868001 C200.510843,84.3121094 201.537349,91.2002433 201.537349,99.3512017 C201.537349,107.50216 200.510843,114.390294 198.457831,120.015603 C196.404819,125.640913 193.325301,129.888595 189.219277,132.758651 C185.113253,135.628707 179.980723,137.063735 173.821687,137.063735 L173.821687,137.063735 Z M264.154217,159.96678 C270.99759,159.96678 274.419277,158.129944 274.419277,154.456273 L274.419277,154.456273 L274.419277,112.438656 L281.091566,112.438656 C286.680321,112.438656 290.529719,113.299673 292.639759,115.021706 C294.749799,116.74374 296.660241,119.32679 298.371084,122.770857 L298.371084,122.770857 L311.886747,156.35051 C312.457028,157.728136 313.626104,158.675255 315.393976,159.191865 C317.161847,159.708475 319.300402,159.96678 321.809639,159.96678 L321.809639,159.96678 L328.824096,159.96678 C335.66747,159.96678 339.089157,158.818758 339.089157,156.522713 C339.089157,155.8339 338.804016,154.743278 338.233735,153.250849 L338.233735,153.250849 L323.178313,115.366113 C321.695582,111.692442 319.813655,108.334476 317.53253,105.292217 C315.251406,102.249958 313.027309,100.327021 310.860241,99.5234051 L310.860241,99.5234051 L310.860241,98.8345917 C316.791165,96.538547 321.61004,93.0657795 325.316867,88.4162892 C329.023695,83.7667988 330.877108,78.1127889 330.877108,71.4542595 C330.877108,61.1220586 327.483936,53.1433036 320.69759,47.5179942 C313.911245,41.8926849 303.104418,39.0800302 288.277108,39.0800302 L288.277108,39.0800302 L254.915663,39.0800302 C250.353414,39.0800302 248.072289,41.3760748 248.072289,45.9681641 L248.072289,45.9681641 L248.072289,154.456273 C248.072289,158.129944 251.493976,159.96678 258.337349,159.96678 L258.337349,159.96678 L264.154217,159.96678 Z M290.672289,89.5356109 L274.419277,89.5356109 L274.419277,61.6386687 L289.474699,61.6386687 C293.922892,61.6386687 297.43012,62.8153916 299.996386,65.1688373 C302.562651,67.522283 303.845783,70.708045 303.845783,74.7261231 C303.845783,77.4813766 303.246988,79.9783252 302.049398,82.2169687 C300.851807,84.4556122 299.25502,86.2350468 297.259036,87.5552724 C295.263052,88.8754981 293.06747,89.5356109 290.672289,89.5356109 L290.672289,89.5356109 Z M380.320482,30.6420662 C383.285944,30.6420662 385.567068,30.4124617 387.163855,29.9532528 C388.760643,29.4940439 390.471486,28.6330271 392.296386,27.3702026 L392.296386,27.3702026 L407.009639,17.7268152 C408.834538,16.4639906 410.146185,15.3733694 410.944578,14.4549516 C411.742972,13.5365337 412.142169,12.7329181 412.142169,12.0441047 C412.142169,10.7812801 411.115663,9.94896397 409.062651,9.54715616 C407.009639,9.14534835 403.987149,8.94444444 399.995181,8.94444444 C396.117269,8.94444444 393.151807,9.3175517 391.098795,10.0637662 C389.045783,10.8099807 387.106827,12.1589069 385.281928,14.1105449 L385.281928,14.1105449 L376.043373,24.4427457 C375.24498,25.3611635 374.674699,26.1360786 374.33253,26.7674909 C373.990361,27.3989032 373.819277,27.9442137 373.819277,28.4034227 C373.819277,29.8958517 375.986345,30.6420662 380.320482,30.6420662 Z M420.86747,159.622373 C424.289157,159.622373 426,156.752317 426,151.012206 L426,151.012206 L426,145.673902 C426,139.933791 424.289157,137.063735 420.86747,137.063735 L420.86747,137.063735 L380.149398,137.063735 L380.149398,109.166793 L416.077108,109.166793 C419.498795,109.166793 421.209639,106.296737 421.209639,100.556625 L421.209639,100.556625 L421.209639,95.2183214 C421.209639,89.4782098 419.498795,86.608154 416.077108,86.608154 L416.077108,86.608154 L380.149398,86.608154 L380.149398,61.6386687 L420.696386,61.6386687 C424.118072,61.6386687 425.828916,58.7686129 425.828916,53.0285013 L425.828916,53.0285013 L425.828916,47.6901976 C425.828916,41.950086 424.118072,39.0800302 420.696386,39.0800302 L420.696386,39.0800302 L360.645783,39.0800302 C356.083534,39.0800302 353.80241,41.3760748 353.80241,45.9681641 L353.80241,45.9681641 L353.80241,152.734239 C353.80241,157.326329 356.083534,159.622373 360.645783,159.622373 L360.645783,159.622373 L420.86747,159.622373 Z" id="ODRÉ" fill="#283943" fill-rule="nonzero"></path>
                    <path d="M372.998437,29.9896727 C374.832798,33.332015 388.724224,33.0082374 396.706344,28.1645367 C396.806397,28.1038227 424.64912,11.6839983 424.64912,5.18694497 C424.64912,-1.31010836 405.168047,-1.31010836 397.37766,3.00591683 C389.587273,7.32194201 370.299138,25.0713487 372.998437,29.9896727 Z" id="Path-2-Copy-3" fill="#01ABB0"></path>
                </g>
                <path d="M18.0571151,205 C21.3340315,205 23.8348361,204.017544 25.559529,202.052632 C27.2842218,200.087719 28.1465682,197.24714 28.1465682,193.530892 C28.1465682,189.77193 27.2842218,186.93135 25.559529,185.009153 C23.8348361,183.086957 21.3340315,182.125858 18.0571151,182.125858 C14.8017574,182.125858 12.3117321,183.086957 10.5870393,185.009153 C8.86234642,186.93135 8,189.77193 8,193.530892 C8,197.24714 8.86234642,200.087719 10.5870393,202.052632 C12.3117321,204.017544 14.8017574,205 18.0571151,205 Z M18.0571151,202.052632 C15.9443664,202.052632 14.3328565,201.326468 13.2225855,199.874142 C12.1123145,198.421815 11.557179,196.307399 11.557179,193.530892 C11.557179,190.754386 12.1123145,188.655988 13.2225855,187.235698 C14.3328565,185.815408 15.9443664,185.105263 18.0571151,185.105263 C20.1914225,185.105263 21.8137117,185.815408 22.9239827,187.235698 C24.0342537,188.655988 24.5893893,190.754386 24.5893893,193.530892 C24.5893893,196.307399 24.0342537,198.421815 22.9239827,199.874142 C21.8137117,201.326468 20.1914225,202.052632 18.0571151,202.052632 Z M33.2272259,204.839817 C34.1973656,204.839817 34.6824355,204.572845 34.6824355,204.038902 L34.6824355,204.038902 L34.6824355,195.549199 L39.2420922,195.549199 C39.5870307,195.549199 40.0451523,195.506484 40.6164568,195.421053 C41.1877613,195.335622 41.8021831,195.16476 42.4597223,194.908467 C43.1172614,194.652174 43.7316832,194.278413 44.3029877,193.787185 C44.8742922,193.295957 45.3485828,192.644546 45.7258593,191.832952 C46.1031359,191.021358 46.2917742,190.028223 46.2917742,188.853547 C46.2917742,187.443936 46.0438496,186.306636 45.5480004,185.441648 C45.0521512,184.576659 44.4215604,183.919908 43.6562279,183.471396 C42.8908955,183.022883 42.0878354,182.723875 41.2470476,182.574371 C40.4062598,182.424867 39.6301481,182.350114 38.9187123,182.350114 L38.9187123,182.350114 L32.2894242,182.350114 C31.5779884,182.350114 31.2222705,182.702517 31.2222705,183.407323 L31.2222705,183.407323 L31.2222705,204.038902 C31.2222705,204.572845 31.7181197,204.839817 32.709818,204.839817 L32.709818,204.839817 L33.2272259,204.839817 Z M39.1127402,192.601831 L34.6824355,192.601831 L34.6824355,185.297483 L38.7893603,185.297483 C39.3714441,185.297483 39.9643073,185.388253 40.5679498,185.569794 C41.1715923,185.751335 41.6782208,186.098398 42.0878354,186.610984 C42.4974499,187.12357 42.7022572,187.871091 42.7022572,188.853547 C42.7022572,189.643783 42.5782949,190.284516 42.3303703,190.775744 C42.0824457,191.266972 41.7698451,191.646072 41.3925686,191.913043 C41.015292,192.180015 40.6218464,192.361556 40.2122319,192.457666 C39.8026174,192.553776 39.4361201,192.601831 39.1127402,192.601831 L39.1127402,192.601831 Z M61.170843,204.775744 C61.6666922,204.775744 61.9146168,204.391304 61.9146168,203.622426 L61.9146168,203.622426 L61.9146168,202.981693 C61.9146168,202.212815 61.6666922,201.828375 61.170843,201.828375 L61.170843,201.828375 L52.2455576,201.828375 L52.2455576,194.78032 L60.2007033,194.78032 C60.6965525,194.78032 60.9444771,194.395881 60.9444771,193.627002 L60.9444771,193.627002 L60.9444771,192.98627 C60.9444771,192.217391 60.6965525,191.832952 60.2007033,191.832952 L60.2007033,191.832952 L52.2455576,191.832952 L52.2455576,185.297483 L61.138505,185.297483 C61.6343542,185.297483 61.8822788,184.913043 61.8822788,184.144165 L61.8822788,184.144165 L61.8822788,183.503432 C61.8822788,182.734554 61.6343542,182.350114 61.138505,182.350114 L61.138505,182.350114 L49.8525463,182.350114 C49.1411105,182.350114 48.7853926,182.702517 48.7853926,183.407323 L48.7853926,183.407323 L48.7853926,203.718535 C48.7853926,204.423341 49.1411105,204.775744 49.8525463,204.775744 L49.8525463,204.775744 L61.170843,204.775744 Z M66.8335845,204.839817 C67.8252829,204.839817 68.3211321,204.572845 68.3211321,204.038902 L68.3211321,204.038902 L68.3211321,189.061785 C68.3211321,188.752098 68.2995734,188.415713 68.2564561,188.052632 L68.2564561,188.052632 L68.3858081,188.020595 C68.5582774,188.362319 68.7307466,188.688024 68.9032159,188.997712 C69.0756852,189.307399 69.2697131,189.622426 69.4852998,189.942792 L69.4852998,189.942792 L79.025007,204.263158 C79.1759176,204.476735 79.3645559,204.62624 79.5909219,204.71167 C79.8172878,204.797101 80.10294,204.839817 80.4478786,204.839817 L80.4478786,204.839817 L81.2563284,204.839817 C82.2480268,204.839817 82.743876,204.572845 82.743876,204.038902 L82.743876,204.038902 L82.743876,183.086957 C82.743876,182.553013 82.2480268,182.286041 81.2563284,182.286041 L81.2563284,182.286041 L80.8359345,182.286041 C79.8442361,182.286041 79.3483869,182.553013 79.3483869,183.086957 L79.3483869,183.086957 L79.3493975,197.007866 C79.3514186,197.330235 79.3564714,197.607551 79.3645559,197.839817 C79.3753353,198.149504 79.3915043,198.485889 79.4130629,198.84897 L79.4130629,198.84897 L79.283711,198.881007 C79.1328003,198.539283 78.9711104,198.218917 78.7986411,197.919908 C78.6261718,197.6209 78.4213645,197.311213 78.1842193,196.990847 L78.1842193,196.990847 L68.8708779,182.95881 C68.6984086,182.702517 68.4882117,182.526316 68.2402871,182.430206 C67.9923625,182.334096 67.6743723,182.286041 67.2863164,182.286041 L67.2863164,182.286041 L66.4131906,182.286041 C65.4214922,182.286041 64.9256431,182.553013 64.9256431,183.086957 L64.9256431,183.086957 L64.9256431,204.038902 C64.9256431,204.572845 65.4214922,204.839817 66.4131906,204.839817 L66.4131906,204.839817 L66.8335845,204.839817 Z M94.8418776,204.775744 C96.3294252,204.775744 97.6876208,204.562166 98.9164644,204.135011 C100.145308,203.707857 101.207072,203.051106 102.101757,202.16476 C102.996441,201.278413 103.691708,200.125095 104.187557,198.704805 C104.683406,197.284516 104.931331,195.570557 104.931331,193.562929 C104.931331,190.893211 104.500158,188.736079 103.637811,187.091533 C102.775465,185.446987 101.584349,184.245614 100.064463,183.487414 C98.5445776,182.729214 96.8037157,182.350114 94.8418776,182.350114 L94.8418776,182.350114 L88.2125895,182.350114 C87.5011537,182.350114 87.1454358,182.702517 87.1454358,183.407323 L87.1454358,183.407323 L87.1454358,203.718535 C87.1454358,204.423341 87.5011537,204.775744 88.2125895,204.775744 L88.2125895,204.775744 L94.8418776,204.775744 Z M94.6801877,201.828375 L90.6056008,201.828375 L90.6056008,185.297483 L94.6801877,185.297483 C95.9952659,185.297483 97.154044,185.580473 98.1565217,186.146453 C99.1589994,186.712433 99.9458905,187.59878 100.517195,188.805492 C101.088499,190.012204 101.374152,191.598017 101.374152,193.562929 C101.374152,195.527841 101.088499,197.113654 100.517195,198.320366 C99.9458905,199.527079 99.1589994,200.413425 98.1565217,200.979405 C97.154044,201.545385 95.9952659,201.828375 94.6801877,201.828375 L94.6801877,201.828375 Z M107.748329,204.839817 C108.093268,204.839817 108.38431,204.797101 108.621455,204.71167 C108.8586,204.62624 109.02029,204.487414 109.106525,204.295195 L109.106525,204.295195 L110.7881,199.425629 L119.745724,199.425629 L121.459637,204.295195 C121.545872,204.487414 121.718341,204.62624 121.977045,204.71167 C122.235749,204.797101 122.548349,204.839817 122.914847,204.839817 L122.914847,204.839817 L123.496931,204.839817 C124.46707,204.839817 124.95214,204.647597 124.95214,204.263158 C124.95214,204.113654 124.919802,203.953471 124.855126,203.782609 L124.855126,203.782609 L117.352712,182.830664 C117.244919,182.467582 116.759849,182.286041 115.897503,182.286041 L115.897503,182.286041 L114.765673,182.286041 C113.924885,182.286041 113.439815,182.467582 113.310463,182.830664 L113.310463,182.830664 L105.80805,203.750572 C105.786491,203.857361 105.764932,203.948131 105.743374,204.022883 C105.721815,204.097635 105.711036,204.177727 105.711036,204.263158 C105.711036,204.647597 106.228443,204.839817 107.263259,204.839817 L107.263259,204.839817 L107.748329,204.839817 Z M118.710908,196.478261 L111.822916,196.478261 L114.798011,188.020595 C114.905804,187.721587 114.997429,187.40656 115.072884,187.075515 C115.148339,186.74447 115.218405,186.418764 115.283081,186.098398 L115.283081,186.098398 L115.347757,186.098398 C115.412433,186.418764 115.477109,186.74447 115.541785,187.075515 C115.606461,187.40656 115.681916,187.721587 115.768151,188.020595 L115.768151,188.020595 L118.710908,196.478261 Z M131.843725,204.839817 C132.835424,204.839817 133.331273,204.572845 133.331273,204.038902 L133.331273,204.038902 L133.331273,185.297483 L139.184449,185.297483 C139.65874,185.297483 139.895885,184.913043 139.895885,184.144165 L139.895885,184.144165 L139.895885,183.503432 C139.895885,182.734554 139.65874,182.350114 139.184449,182.350114 L139.184449,182.350114 L123.953256,182.350114 C123.478965,182.350114 123.24182,182.734554 123.24182,183.503432 L123.24182,183.503432 L123.24182,184.144165 C123.24182,184.913043 123.478965,185.297483 123.953256,185.297483 L123.953256,185.297483 L129.871108,185.297483 L129.871108,204.038902 C129.871108,204.572845 130.366957,204.839817 131.358655,204.839817 L131.358655,204.839817 L131.843725,204.839817 Z M140.222858,204.839817 C140.567797,204.839817 140.858838,204.797101 141.095984,204.71167 C141.333129,204.62624 141.494819,204.487414 141.581054,204.295195 L141.581054,204.295195 L143.262629,199.425629 L152.220253,199.425629 L153.934166,204.295195 C154.020401,204.487414 154.19287,204.62624 154.451574,204.71167 C154.710278,204.797101 155.022878,204.839817 155.389376,204.839817 L155.389376,204.839817 L155.971459,204.839817 C156.941599,204.839817 157.426669,204.647597 157.426669,204.263158 C157.426669,204.113654 157.394331,203.953471 157.329655,203.782609 L157.329655,203.782609 L149.827241,182.830664 C149.719448,182.467582 149.234378,182.286041 148.372032,182.286041 L148.372032,182.286041 L147.240202,182.286041 C146.399414,182.286041 145.914344,182.467582 145.784992,182.830664 L145.784992,182.830664 L138.282579,203.750572 C138.26102,203.857361 138.239461,203.948131 138.217903,204.022883 C138.196344,204.097635 138.185565,204.177727 138.185565,204.263158 C138.185565,204.647597 138.702972,204.839817 139.737788,204.839817 L139.737788,204.839817 L140.222858,204.839817 Z M151.185437,196.478261 L144.297445,196.478261 L147.27254,188.020595 C147.380333,187.721587 147.471958,187.40656 147.547413,187.075515 C147.622868,186.74447 147.692934,186.418764 147.75761,186.098398 L147.75761,186.098398 L147.822286,186.098398 C147.886962,186.418764 147.951638,186.74447 148.016314,187.075515 C148.08099,187.40656 148.156445,187.721587 148.24268,188.020595 L148.24268,188.020595 L151.185437,196.478261 Z M167.81435,204.839817 C168.806049,204.839817 169.301898,204.572845 169.301898,204.038902 L169.301898,204.038902 L169.301898,195.228833 L171.727247,195.228833 C172.934532,195.228833 173.856165,195.421053 174.492145,195.805492 C175.128126,196.189931 175.661703,196.926773 176.092876,198.016018 L176.092876,198.016018 L178.582901,204.295195 C178.669136,204.466056 178.841605,204.599542 179.100309,204.695652 C179.359013,204.791762 179.671614,204.839817 180.038111,204.839817 L180.038111,204.839817 L180.652533,204.839817 C181.687348,204.839817 182.204756,204.658276 182.204756,204.295195 C182.204756,204.188406 182.161639,204.017544 182.075404,203.782609 L182.075404,203.782609 L179.456027,197.279176 C179.08953,196.318078 178.696084,195.506484 178.27569,194.844394 C177.855296,194.182304 177.332499,193.755149 176.707298,193.562929 L176.707298,193.562929 L176.707298,193.434783 C177.849907,193.007628 178.76076,192.345538 179.439858,191.448513 C180.118956,190.551487 180.458505,189.440885 180.458505,188.116705 C180.458505,186.130435 179.795576,184.672769 178.469718,183.743707 C177.143861,182.814645 175.187412,182.350114 172.600373,182.350114 L172.600373,182.350114 L166.908887,182.350114 C166.197451,182.350114 165.841733,182.702517 165.841733,183.407323 L165.841733,183.407323 L165.841733,204.038902 C165.841733,204.572845 166.337582,204.839817 167.32928,204.839817 L167.32928,204.839817 L167.81435,204.839817 Z M173.214795,192.249428 L169.301898,192.249428 L169.301898,185.297483 L172.988429,185.297483 C174.174155,185.297483 175.122736,185.575133 175.834172,186.130435 C176.545608,186.685736 176.901326,187.529367 176.901326,188.661327 C176.901326,189.302059 176.734246,189.900076 176.400087,190.455378 C176.065928,191.010679 175.623975,191.448513 175.074229,191.768879 C174.524483,192.089245 173.904672,192.249428 173.214795,192.249428 L173.214795,192.249428 Z M189.064003,180.716247 C189.60297,180.716247 190.023364,180.673532 190.325185,180.588101 C190.627006,180.50267 190.982724,180.321129 191.392339,180.043478 L191.392339,180.043478 L193.46197,178.79405 C193.957819,178.473684 194.281199,178.22807 194.43211,178.057208 C194.58302,177.886346 194.658476,177.726163 194.658476,177.576659 C194.658476,177.363082 194.486006,177.213577 194.141068,177.128146 C193.796129,177.042715 193.343397,177 192.782872,177 C192.092995,177 191.570198,177.053394 191.21448,177.160183 C190.858762,177.266972 190.529992,177.480549 190.228171,177.800915 L190.228171,177.800915 L188.48192,179.659039 C188.331009,179.787185 188.228605,179.904653 188.174709,180.011442 C188.120812,180.11823 188.093864,180.21434 188.093864,180.299771 C188.093864,180.577422 188.417244,180.716247 189.064003,180.716247 Z M196.792783,204.775744 C197.288632,204.775744 197.536557,204.391304 197.536557,203.622426 L197.536557,203.622426 L197.536557,202.981693 C197.536557,202.212815 197.288632,201.828375 196.792783,201.828375 L196.792783,201.828375 L187.867498,201.828375 L187.867498,194.78032 L195.822643,194.78032 C196.318493,194.78032 196.566417,194.395881 196.566417,193.627002 L196.566417,193.627002 L196.566417,192.98627 C196.566417,192.217391 196.318493,191.832952 195.822643,191.832952 L195.822643,191.832952 L187.867498,191.832952 L187.867498,185.297483 L196.760445,185.297483 C197.256294,185.297483 197.504219,184.913043 197.504219,184.144165 L197.504219,184.144165 L197.504219,183.503432 C197.504219,182.734554 197.256294,182.350114 196.760445,182.350114 L196.760445,182.350114 L185.474486,182.350114 C184.763051,182.350114 184.407333,182.702517 184.407333,183.407323 L184.407333,183.407323 L184.407333,203.718535 C184.407333,204.423341 184.763051,204.775744 185.474486,204.775744 L185.474486,204.775744 L196.792783,204.775744 Z M205.851014,205 C206.885829,205 207.8398,204.861175 208.712926,204.583524 C209.586052,204.305873 210.351384,203.894737 211.008923,203.350114 C211.666462,202.805492 212.173091,202.132723 212.528809,201.331808 C212.884527,200.530892 213.062386,199.596491 213.062386,198.528604 C213.062386,197.439359 212.884527,196.526316 212.528809,195.789474 C212.173091,195.052632 211.693411,194.438596 211.089768,193.947368 C210.486126,193.45614 209.828587,193.045004 209.117151,192.713959 C208.405715,192.382914 207.705058,192.078566 207.015181,191.800915 C206.282187,191.523265 205.603089,191.245614 204.977888,190.967963 C204.352687,190.690313 203.846058,190.33791 203.458002,189.910755 C203.069946,189.4836 202.875918,188.906941 202.875918,188.180778 C202.875918,187.540046 203.026829,186.990084 203.32865,186.530892 C203.630472,186.071701 204.067034,185.719298 204.638339,185.473684 C205.209643,185.22807 205.90491,185.105263 206.724139,185.105263 C207.457134,185.105263 208.071556,185.180015 208.567405,185.329519 C209.063254,185.479024 209.483648,185.639207 209.828587,185.810069 C210.065732,185.916857 210.25976,186.007628 210.41067,186.08238 C210.561581,186.157132 210.680154,186.194508 210.766388,186.194508 C210.917299,186.194508 211.089768,186.066362 211.283796,185.810069 C211.477824,185.553776 211.650293,185.265446 211.801204,184.94508 C211.952115,184.624714 212.02757,184.368421 212.02757,184.176201 C212.02757,183.855835 211.801204,183.556827 211.348472,183.279176 C211.003534,183.044241 210.566971,182.841342 210.038783,182.670481 C209.510596,182.499619 208.950071,182.366133 208.357208,182.270023 C207.764345,182.173913 207.187651,182.125858 206.627125,182.125858 C205.247371,182.125858 204.002359,182.371472 202.892087,182.8627 C201.781816,183.353928 200.908691,184.053394 200.27271,184.961098 C199.63673,185.868802 199.31874,186.952708 199.31874,188.212815 C199.31874,189.237986 199.46965,190.097635 199.771471,190.791762 C200.073293,191.485889 200.472128,192.062548 200.967977,192.521739 C201.463826,192.980931 202.024351,193.370709 202.649553,193.691076 C203.274754,194.011442 203.921514,194.299771 204.589832,194.556064 C205.409061,194.897788 206.195952,195.234172 206.950505,195.565217 C207.705058,195.896262 208.31948,196.302059 208.793771,196.782609 C209.268061,197.263158 209.505207,197.90923 209.505207,198.720824 C209.505207,199.425629 209.327348,200.028986 208.97163,200.530892 C208.615912,201.032799 208.147011,201.411899 207.564927,201.668192 C206.982843,201.924485 206.325304,202.052632 205.59231,202.052632 C204.514377,202.052632 203.587354,201.897788 202.811243,201.588101 C202.035131,201.278413 201.431488,201.016781 201.000315,200.803204 C200.849404,200.696415 200.709273,200.610984 200.579921,200.546911 C200.450569,200.482838 200.342776,200.450801 200.256541,200.450801 C200.127189,200.450801 199.94933,200.578947 199.722964,200.83524 C199.496598,201.091533 199.302571,201.379863 199.140881,201.700229 C198.979191,202.020595 198.898346,202.287567 198.898346,202.501144 C198.898346,202.800153 199.124712,203.10984 199.577443,203.430206 C200.11641,203.814645 200.930249,204.172387 202.018962,204.503432 C203.107674,204.834477 204.385025,205 205.851014,205 Z M228.103144,204.775744 C228.598994,204.775744 228.846918,204.391304 228.846918,203.622426 L228.846918,203.622426 L228.846918,202.981693 C228.846918,202.212815 228.598994,201.828375 228.103144,201.828375 L228.103144,201.828375 L219.177859,201.828375 L219.177859,194.78032 L227.133005,194.78032 C227.628854,194.78032 227.876778,194.395881 227.876778,193.627002 L227.876778,193.627002 L227.876778,192.98627 C227.876778,192.217391 227.628854,191.832952 227.133005,191.832952 L227.133005,191.832952 L219.177859,191.832952 L219.177859,185.297483 L228.070806,185.297483 C228.566656,185.297483 228.81458,184.913043 228.81458,184.144165 L228.81458,184.144165 L228.81458,183.503432 C228.81458,182.734554 228.566656,182.350114 228.070806,182.350114 L228.070806,182.350114 L216.784848,182.350114 C216.073412,182.350114 215.717694,182.702517 215.717694,183.407323 L215.717694,183.407323 L215.717694,203.718535 C215.717694,204.423341 216.073412,204.775744 216.784848,204.775744 L216.784848,204.775744 L228.103144,204.775744 Z M231.469889,204.839817 C231.814827,204.839817 232.105869,204.797101 232.343014,204.71167 C232.58016,204.62624 232.74185,204.487414 232.828084,204.295195 L232.828084,204.295195 L234.50966,199.425629 L243.467283,199.425629 L245.181197,204.295195 C245.267431,204.487414 245.439901,204.62624 245.698604,204.71167 C245.957308,204.797101 246.269909,204.839817 246.636406,204.839817 L246.636406,204.839817 L247.21849,204.839817 C248.18863,204.839817 248.6737,204.647597 248.6737,204.263158 C248.6737,204.113654 248.641362,203.953471 248.576686,203.782609 L248.576686,203.782609 L241.074272,182.830664 C240.966478,182.467582 240.481409,182.286041 239.619062,182.286041 L239.619062,182.286041 L238.487233,182.286041 C237.646445,182.286041 237.161375,182.467582 237.032023,182.830664 L237.032023,182.830664 L229.529609,203.750572 C229.50805,203.857361 229.486492,203.948131 229.464933,204.022883 C229.443374,204.097635 229.432595,204.177727 229.432595,204.263158 C229.432595,204.647597 229.950003,204.839817 230.984819,204.839817 L230.984819,204.839817 L231.469889,204.839817 Z M242.432467,196.478261 L235.544475,196.478261 L238.519571,188.020595 C238.627364,187.721587 238.718988,187.40656 238.794443,187.075515 C238.869899,186.74447 238.939964,186.418764 239.00464,186.098398 L239.00464,186.098398 L239.069316,186.098398 C239.133992,186.418764 239.198668,186.74447 239.263344,187.075515 C239.32802,187.40656 239.403476,187.721587 239.48971,188.020595 L239.48971,188.020595 L242.432467,196.478261 Z M259.219478,205 C262.08678,205 264.301932,204.33791 265.864935,203.01373 C267.427938,201.68955 268.209439,199.852784 268.209439,197.503432 L268.209439,197.503432 L268.209439,183.086957 C268.209439,182.553013 267.71359,182.286041 266.721892,182.286041 L266.721892,182.286041 L266.236822,182.286041 C265.245123,182.286041 264.749274,182.553013 264.749274,183.086957 L264.749274,183.086957 L264.749274,197.471396 C264.749274,198.368421 264.512129,199.158658 264.037838,199.842105 C263.563548,200.525553 262.911398,201.064836 262.08139,201.459954 C261.251381,201.855072 260.297411,202.052632 259.219478,202.052632 C258.163103,202.052632 257.214522,201.860412 256.373735,201.475973 C255.532947,201.091533 254.875408,200.55225 254.401117,199.858124 C253.926827,199.163997 253.689681,198.368421 253.689681,197.471396 L253.689681,197.471396 L253.689681,183.086957 C253.689681,182.553013 253.193832,182.286041 252.202134,182.286041 L252.202134,182.286041 L251.717064,182.286041 C250.725365,182.286041 250.229516,182.553013 250.229516,183.086957 L250.229516,183.086957 L250.229516,197.503432 C250.229516,199.852784 251.005628,201.68955 252.557852,203.01373 C254.110075,204.33791 256.330617,205 259.219478,205 Z M272.190605,204.839817 C272.535544,204.839817 272.848144,204.80778 273.128407,204.743707 C273.408669,204.679634 273.613477,204.551487 273.742829,204.359268 L273.742829,204.359268 L279.304963,196.061785 L284.802422,204.327231 C284.931773,204.519451 285.125801,204.652937 285.384505,204.727689 C285.643209,204.802441 285.966589,204.839817 286.354645,204.839817 L286.354645,204.839817 L287.066081,204.839817 C287.669723,204.839817 288.095507,204.791762 288.343432,204.695652 C288.591356,204.599542 288.715318,204.455378 288.715318,204.263158 C288.715318,204.113654 288.629084,203.900076 288.456614,203.622426 L288.456614,203.622426 L281.406932,192.98627 L287.777517,183.503432 C287.842193,183.375286 287.901479,183.257818 287.955376,183.15103 C288.009272,183.044241 288.036221,182.948131 288.036221,182.8627 C288.036221,182.670481 287.912258,182.526316 287.664334,182.430206 C287.416409,182.334096 287.001405,182.286041 286.419321,182.286041 L286.419321,182.286041 L285.901913,182.286041 C285.556975,182.286041 285.244374,182.318078 284.964111,182.382151 C284.683849,182.446224 284.479042,182.574371 284.34969,182.76659 L284.34969,182.76659 L279.434315,190.006865 L274.68063,182.798627 C274.551278,182.606407 274.357251,182.472921 274.098547,182.398169 C273.839843,182.323417 273.516463,182.286041 273.128407,182.286041 L273.128407,182.286041 L272.416971,182.286041 C271.834887,182.286041 271.414493,182.339436 271.155789,182.446224 C270.897085,182.553013 270.767734,182.691838 270.767734,182.8627 C270.767734,183.012204 270.864748,183.225782 271.058775,183.503432 L271.058775,183.503432 L277.364684,193.08238 L270.282664,203.622426 C270.110194,203.900076 270.02396,204.113654 270.02396,204.263158 C270.02396,204.455378 270.147922,204.599542 270.395847,204.695652 C270.643771,204.791762 271.058775,204.839817 271.640859,204.839817 L271.640859,204.839817 L272.190605,204.839817 Z M296.286001,197.567506 C296.781851,197.567506 297.029775,197.183066 297.029775,196.414188 L297.029775,196.414188 L297.029775,196.125858 C297.029775,195.378337 296.781851,195.004577 296.286001,195.004577 L296.286001,195.004577 L290.012431,195.004577 C289.516582,195.004577 289.268657,195.378337 289.268657,196.125858 L289.268657,196.125858 L289.268657,196.414188 C289.268657,197.183066 289.516582,197.567506 290.012431,197.567506 L290.012431,197.567506 L296.286001,197.567506 Z M304.697472,180.716247 C305.236439,180.716247 305.656832,180.673532 305.958654,180.588101 C306.260475,180.50267 306.616193,180.321129 307.025807,180.043478 L307.025807,180.043478 L309.095439,178.79405 C309.591288,178.473684 309.914668,178.22807 310.065579,178.057208 C310.216489,177.886346 310.291944,177.726163 310.291944,177.576659 C310.291944,177.363082 310.119475,177.213577 309.774537,177.128146 C309.429598,177.042715 308.976866,177 308.416341,177 C307.726464,177 307.203666,177.053394 306.847948,177.160183 C306.492231,177.266972 306.163461,177.480549 305.86164,177.800915 L305.86164,177.800915 L304.115388,179.659039 C303.964478,179.787185 303.862074,179.904653 303.808177,180.011442 C303.754281,180.11823 303.727332,180.21434 303.727332,180.299771 C303.727332,180.577422 304.050712,180.716247 304.697472,180.716247 Z M312.426252,204.775744 C312.922101,204.775744 313.170026,204.391304 313.170026,203.622426 L313.170026,203.622426 L313.170026,202.981693 C313.170026,202.212815 312.922101,201.828375 312.426252,201.828375 L312.426252,201.828375 L303.500966,201.828375 L303.500966,194.78032 L311.456112,194.78032 C311.951961,194.78032 312.199886,194.395881 312.199886,193.627002 L312.199886,193.627002 L312.199886,192.98627 C312.199886,192.217391 311.951961,191.832952 311.456112,191.832952 L311.456112,191.832952 L303.500966,191.832952 L303.500966,185.297483 L312.393914,185.297483 C312.889763,185.297483 313.137688,184.913043 313.137688,184.144165 L313.137688,184.144165 L313.137688,183.503432 C313.137688,182.734554 312.889763,182.350114 312.393914,182.350114 L312.393914,182.350114 L301.107955,182.350114 C300.396519,182.350114 300.040801,182.702517 300.040801,183.407323 L300.040801,183.407323 L300.040801,203.718535 C300.040801,204.423341 300.396519,204.775744 301.107955,204.775744 L301.107955,204.775744 L312.426252,204.775744 Z M318.088993,204.839817 C319.080692,204.839817 319.576541,204.572845 319.576541,204.038902 L319.576541,204.038902 L319.576541,189.061785 C319.576541,188.752098 319.554982,188.415713 319.511865,188.052632 L319.511865,188.052632 L319.641217,188.020595 C319.813686,188.362319 319.986155,188.688024 320.158625,188.997712 C320.331094,189.307399 320.525122,189.622426 320.740709,189.942792 L320.740709,189.942792 L330.280416,204.263158 C330.431326,204.476735 330.619965,204.62624 330.846331,204.71167 C331.072697,204.797101 331.358349,204.839817 331.703287,204.839817 L331.703287,204.839817 L332.511737,204.839817 C333.503436,204.839817 333.999285,204.572845 333.999285,204.038902 L333.999285,204.038902 L333.999285,183.086957 C333.999285,182.553013 333.503436,182.286041 332.511737,182.286041 L332.511737,182.286041 L332.091343,182.286041 C331.099645,182.286041 330.603796,182.553013 330.603796,183.086957 L330.603796,183.086957 L330.604806,197.007866 C330.606827,197.330235 330.61188,197.607551 330.619965,197.839817 C330.630744,198.149504 330.646913,198.485889 330.668472,198.84897 L330.668472,198.84897 L330.53912,198.881007 C330.388209,198.539283 330.226519,198.218917 330.05405,197.919908 C329.881581,197.6209 329.676773,197.311213 329.439628,196.990847 L329.439628,196.990847 L320.126287,182.95881 C319.953817,182.702517 319.743621,182.526316 319.495696,182.430206 C319.247771,182.334096 318.929781,182.286041 318.541725,182.286041 L318.541725,182.286041 L317.668599,182.286041 C316.676901,182.286041 316.181052,182.553013 316.181052,183.086957 L316.181052,183.086957 L316.181052,204.038902 C316.181052,204.572845 316.676901,204.839817 317.668599,204.839817 L317.668599,204.839817 L318.088993,204.839817 Z M350.818633,204.775744 C351.314482,204.775744 351.562407,204.391304 351.562407,203.622426 L351.562407,203.622426 L351.562407,202.981693 C351.562407,202.212815 351.314482,201.828375 350.818633,201.828375 L350.818633,201.828375 L341.893348,201.828375 L341.893348,194.78032 L349.848493,194.78032 C350.344343,194.78032 350.592267,194.395881 350.592267,193.627002 L350.592267,193.627002 L350.592267,192.98627 C350.592267,192.217391 350.344343,191.832952 349.848493,191.832952 L349.848493,191.832952 L341.893348,191.832952 L341.893348,185.297483 L350.786295,185.297483 C351.282144,185.297483 351.530069,184.913043 351.530069,184.144165 L351.530069,184.144165 L351.530069,183.503432 C351.530069,182.734554 351.282144,182.350114 350.786295,182.350114 L350.786295,182.350114 L339.500336,182.350114 C338.788901,182.350114 338.433183,182.702517 338.433183,183.407323 L338.433183,183.407323 L338.433183,203.718535 C338.433183,204.423341 338.788901,204.775744 339.500336,204.775744 L339.500336,204.775744 L350.818633,204.775744 Z M356.707741,204.839817 C357.699439,204.839817 358.195288,204.572845 358.195288,204.038902 L358.195288,204.038902 L358.195288,195.228833 L360.620637,195.228833 C361.827922,195.228833 362.749555,195.421053 363.385536,195.805492 C364.021516,196.189931 364.555093,196.926773 364.986266,198.016018 L364.986266,198.016018 L367.476291,204.295195 C367.562526,204.466056 367.734995,204.599542 367.993699,204.695652 C368.252403,204.791762 368.565004,204.839817 368.931501,204.839817 L368.931501,204.839817 L369.545923,204.839817 C370.580739,204.839817 371.098146,204.658276 371.098146,204.295195 C371.098146,204.188406 371.055029,204.017544 370.968794,203.782609 L370.968794,203.782609 L368.349417,197.279176 C367.98292,196.318078 367.589474,195.506484 367.169081,194.844394 C366.748687,194.182304 366.225889,193.755149 365.600688,193.562929 L365.600688,193.562929 L365.600688,193.434783 C366.743297,193.007628 367.65415,192.345538 368.333248,191.448513 C369.012346,190.551487 369.351895,189.440885 369.351895,188.116705 C369.351895,186.130435 368.688966,184.672769 367.363108,183.743707 C366.037251,182.814645 364.080802,182.350114 361.493763,182.350114 L361.493763,182.350114 L355.802277,182.350114 C355.090841,182.350114 354.735123,182.702517 354.735123,183.407323 L354.735123,183.407323 L354.735123,204.038902 C354.735123,204.572845 355.230972,204.839817 356.222671,204.839817 L356.222671,204.839817 L356.707741,204.839817 Z M362.108185,192.249428 L358.195288,192.249428 L358.195288,185.297483 L361.881819,185.297483 C363.067545,185.297483 364.016126,185.575133 364.727562,186.130435 C365.438998,186.685736 365.794716,187.529367 365.794716,188.661327 C365.794716,189.302059 365.627636,189.900076 365.293477,190.455378 C364.959318,191.010679 364.517365,191.448513 363.967619,191.768879 C363.417874,192.089245 362.798062,192.249428 362.108185,192.249428 L362.108185,192.249428 Z M381.902628,205 C382.743416,205 383.589594,204.962624 384.441161,204.887872 C385.292728,204.81312 386.079619,204.690313 386.801834,204.519451 C387.524049,204.348589 388.106133,204.108314 388.548086,203.798627 C388.990038,203.48894 389.211014,203.099161 389.211014,202.629291 L389.211014,202.629291 L389.211014,194.011442 C389.211014,193.306636 388.855296,192.954233 388.143861,192.954233 L388.143861,192.954233 L382.226008,192.954233 C381.730159,192.954233 381.482235,193.338673 381.482235,194.107551 L381.482235,194.107551 L381.482235,194.748284 C381.482235,195.517162 381.730159,195.901602 382.226008,195.901602 L382.226008,195.901602 L385.750849,195.901602 L385.750849,201.68777 L385.419062,201.75405 C385.289278,201.778825 385.153674,201.802746 385.01225,201.825812 L384.570513,201.892449 C383.80518,201.999237 382.969782,202.052632 382.064318,202.052632 C380.74924,202.052632 379.660528,201.833715 378.798181,201.395881 C377.935835,200.958047 377.245958,200.354691 376.72855,199.585812 C376.211142,198.816934 375.844645,197.90923 375.629058,196.8627 C375.413472,195.816171 375.305678,194.694889 375.305678,193.498856 C375.305678,191.704805 375.532044,190.183066 375.984776,188.933638 C376.437508,187.684211 377.175892,186.733791 378.199928,186.08238 C379.223965,185.430969 380.598329,185.105263 382.323022,185.105263 C383.357838,185.105263 384.220184,185.212052 384.910062,185.425629 C385.599939,185.639207 386.144295,185.852784 386.54313,186.066362 C386.941965,186.279939 387.19528,186.386728 387.303073,186.386728 C387.497101,186.386728 387.696518,186.247902 387.901326,185.970252 C388.106133,185.692601 388.289382,185.377574 388.451072,185.025172 C388.612762,184.672769 388.693606,184.400458 388.693606,184.208238 C388.693606,183.951945 388.510358,183.700992 388.143861,183.455378 C387.777363,183.209764 387.286904,182.990847 386.672482,182.798627 C386.05806,182.606407 385.368183,182.446224 384.602851,182.318078 C383.837518,182.189931 383.066796,182.125858 382.290684,182.125858 C378.862857,182.125858 376.24887,183.065599 374.448722,184.94508 C372.648573,186.824561 371.748499,189.739893 371.748499,193.691076 C371.748499,197.535469 372.610846,200.381388 374.335539,202.228833 C376.060231,204.076278 378.582595,205 381.902628,205 Z M395.29415,204.839817 C396.285848,204.839817 396.781697,204.572845 396.781697,204.038902 L396.781697,204.038902 L396.781697,183.086957 C396.781697,182.553013 396.285848,182.286041 395.29415,182.286041 L395.29415,182.286041 L394.776742,182.286041 C393.785043,182.286041 393.289194,182.553013 393.289194,183.086957 L393.289194,183.086957 L393.289194,204.038902 C393.289194,204.572845 393.785043,204.839817 394.776742,204.839817 L394.776742,204.839817 L395.29415,204.839817 Z M413.730398,204.775744 C414.226247,204.775744 414.474171,204.391304 414.474171,203.622426 L414.474171,203.622426 L414.474171,202.981693 C414.474171,202.212815 414.226247,201.828375 413.730398,201.828375 L413.730398,201.828375 L404.805112,201.828375 L404.805112,194.78032 L412.760258,194.78032 C413.256107,194.78032 413.504032,194.395881 413.504032,193.627002 L413.504032,193.627002 L413.504032,192.98627 C413.504032,192.217391 413.256107,191.832952 412.760258,191.832952 L412.760258,191.832952 L404.805112,191.832952 L404.805112,185.297483 L413.69806,185.297483 C414.193909,185.297483 414.441833,184.913043 414.441833,184.144165 L414.441833,184.144165 L414.441833,183.503432 C414.441833,182.734554 414.193909,182.350114 413.69806,182.350114 L413.69806,182.350114 L402.412101,182.350114 C401.700665,182.350114 401.344947,182.702517 401.344947,183.407323 L401.344947,183.407323 L401.344947,203.718535 C401.344947,204.423341 401.700665,204.775744 402.412101,204.775744 L402.412101,204.775744 L413.730398,204.775744 Z M422.788628,205 C423.823444,205 424.777414,204.861175 425.65054,204.583524 C426.523666,204.305873 427.288998,203.894737 427.946538,203.350114 C428.604077,202.805492 429.110705,202.132723 429.466423,201.331808 C429.822141,200.530892 430,199.596491 430,198.528604 C430,197.439359 429.822141,196.526316 429.466423,195.789474 C429.110705,195.052632 428.631025,194.438596 428.027383,193.947368 C427.42374,193.45614 426.766201,193.045004 426.054765,192.713959 C425.343329,192.382914 424.642673,192.078566 423.952796,191.800915 C423.219801,191.523265 422.540703,191.245614 421.915502,190.967963 C421.290301,190.690313 420.783673,190.33791 420.395617,189.910755 C420.007561,189.4836 419.813533,188.906941 419.813533,188.180778 C419.813533,187.540046 419.964444,186.990084 420.266265,186.530892 C420.568086,186.071701 421.004649,185.719298 421.575953,185.473684 C422.147258,185.22807 422.842525,185.105263 423.661754,185.105263 C424.394748,185.105263 425.00917,185.180015 425.505019,185.329519 C426.000868,185.479024 426.421262,185.639207 426.766201,185.810069 C427.003346,185.916857 427.197374,186.007628 427.348285,186.08238 C427.499195,186.157132 427.617768,186.194508 427.704003,186.194508 C427.854913,186.194508 428.027383,186.066362 428.221411,185.810069 C428.415438,185.553776 428.587908,185.265446 428.738818,184.94508 C428.889729,184.624714 428.965184,184.368421 428.965184,184.176201 C428.965184,183.855835 428.738818,183.556827 428.286086,183.279176 C427.941148,183.044241 427.504585,182.841342 426.976398,182.670481 C426.448211,182.499619 425.887686,182.366133 425.294822,182.270023 C424.701959,182.173913 424.125265,182.125858 423.56474,182.125858 C422.184986,182.125858 420.939973,182.371472 419.829702,182.8627 C418.719431,183.353928 417.846305,184.053394 417.210325,184.961098 C416.574344,185.868802 416.256354,186.952708 416.256354,188.212815 C416.256354,189.237986 416.407265,190.097635 416.709086,190.791762 C417.010907,191.485889 417.409742,192.062548 417.905591,192.521739 C418.401441,192.980931 418.961966,193.370709 419.587167,193.691076 C420.212368,194.011442 420.859128,194.299771 421.527446,194.556064 C422.346676,194.897788 423.133567,195.234172 423.88812,195.565217 C424.642673,195.896262 425.257095,196.302059 425.731385,196.782609 C426.205676,197.263158 426.442821,197.90923 426.442821,198.720824 C426.442821,199.425629 426.264962,200.028986 425.909244,200.530892 C425.553526,201.032799 425.084625,201.411899 424.502542,201.668192 C423.920458,201.924485 423.262919,202.052632 422.529924,202.052632 C421.451991,202.052632 420.524969,201.897788 419.748857,201.588101 C418.972745,201.278413 418.369103,201.016781 417.937929,200.803204 C417.787019,200.696415 417.646888,200.610984 417.517536,200.546911 C417.388184,200.482838 417.28039,200.450801 417.194156,200.450801 C417.064804,200.450801 416.886945,200.578947 416.660579,200.83524 C416.434213,201.091533 416.240185,201.379863 416.078495,201.700229 C415.916805,202.020595 415.83596,202.287567 415.83596,202.501144 C415.83596,202.800153 416.062326,203.10984 416.515058,203.430206 C417.054024,203.814645 417.867864,204.172387 418.956576,204.503432 C420.045289,204.834477 421.322639,205 422.788628,205 Z" id="OPENDATARÉSEAUX-ÉNERGIES" fill-opacity="0.644449301" fill="#283943" fill-rule="nonzero"></path>
            </g>
        </g>
    </g>
</svg>